<svg width="34" height="31" viewBox="0 0 34 31" fill="none" xmlns="http://www.w3.org/2000/svg">
<path fill-rule="evenodd" clip-rule="evenodd" d="M14.5131 10.4375C14.5131 8.48962 15.0912 7.9115 17.0391 7.9115C18.987 7.9115 19.5651 8.48962 19.5651 10.4375C19.5651 12.3855 18.987 12.9636 17.0391 12.9636C15.0912 12.9636 14.5131 12.3855 14.5131 10.4375ZM17.0391 9.26046C16.3881 9.26046 15.862 9.7865 15.862 10.4375C15.862 11.0886 16.3881 11.6146 17.0391 11.6146C17.6901 11.6146 18.2162 11.0886 18.2162 10.4375C18.2162 9.7865 17.6901 9.26046 17.0391 9.26046Z" fill="#FAFAFF"/>
<mask id="mask0_71_2877" style="mask-type:luminance" maskUnits="userSpaceOnUse" x="0" y="0" width="34" height="31">
<path d="M0.471375 0H33.5287V30.6667H0.471375V0Z" fill="white"/>
</mask>
<g mask="url(#mask0_71_2877)">
<path fill-rule="evenodd" clip-rule="evenodd" d="M31.138 8.82811L31.8047 9.14582C32.388 9.42707 33.0911 9.18228 33.3724 8.59895C33.6536 8.0104 33.4088 7.31249 32.8255 7.03124L19.1641 0.447904C18.2318 -1.36197e-05 17.1536 -0.0156392 16.2057 0.401027L1.28906 7.01561C0.695309 7.27603 0.424476 7.96874 0.6901 8.56249C0.950517 9.15624 1.64843 9.42707 2.24218 9.16145L2.9401 8.85415V26.8906C2.9401 28.8333 4.51823 30.4114 6.46614 30.4114H11.2891C13.237 30.4114 14.8151 28.8333 14.8151 26.8906V23.9479C14.8151 23.3021 15.3411 22.776 15.987 22.776H19.4505C20.1016 22.776 20.6276 23.3021 20.6276 23.9479V26.8906C20.6276 28.8333 22.2057 30.4114 24.1536 30.4114H27.612C29.5599 30.4114 31.138 28.8333 31.138 26.8906V8.82811ZM18.1432 1.56769C17.8359 1.41665 17.4713 1.41145 17.1588 1.55207L4.28906 6.81249V26.8906C4.28906 27.5364 5.8151 29.0625 6.46614 29.0625H11.2891C11.9349 29.0625 13.4609 27.5364 13.4609 26.8906V23.9479C13.4609 22.0052 14.0391 21.4271 15.987 21.4271H19.4505C21.3984 21.4271 21.9766 22.0052 21.9766 23.9479V26.8906C21.9766 27.5364 23.5026 29.0625 24.1536 29.0625H27.612C28.263 29.0625 29.7891 27.5364 29.7891 26.8906V6.6927L18.1432 1.56769Z" fill="#FAFAFF"/>
</g>
</svg>
