<svg width="282" height="330" viewBox="0 0 282 330" fill="none" xmlns="http://www.w3.org/2000/svg">
<g filter="url(#filter0_d_23_1457)">
<path d="M48.5312 4.59122H201.38C205.552 4.59122 208.932 7.91934 208.932 12.0235V283.565C208.932 286.971 206.172 289.737 202.76 289.737H9.43225C6.29163 289.737 3.74475 287.232 3.74475 284.143V47.8725L48.5312 4.59122Z" fill="#FBDC6A"/>
<mask id="mask0_23_1457" style="mask-type:luminance" maskUnits="userSpaceOnUse" x="0" y="1" width="213" height="294">
<path d="M0.1875 1.17447H212.188V294.206H0.1875V1.17447Z" fill="white"/>
</mask>
<g mask="url(#mask0_23_1457)">
<path d="M202.76 292.951H9.43229C4.52604 292.951 0.53125 289.003 0.53125 284.143V47.8724C0.53125 46.0964 1.96875 44.6536 3.74479 44.6536C5.52083 44.6536 6.95833 46.0964 6.95833 47.8724V284.143C6.95833 285.456 8.06771 286.518 9.43229 286.518H202.76C204.391 286.518 205.719 285.195 205.719 283.56V12.0234C205.719 9.69531 203.771 7.80468 201.38 7.80468H48.5312C46.7552 7.80468 45.3177 6.36198 45.3177 4.58593C45.3177 2.80989 46.7552 1.37239 48.5312 1.37239H201.38C207.318 1.37239 212.146 6.14843 212.146 12.0234V283.56C212.146 288.742 207.938 292.951 202.76 292.951Z" fill="#760504"/>
</g>
<path d="M3.74475 47.8724L48.5312 4.64322V47.8724H3.74475Z" fill="#760504"/>
<mask id="mask1_23_1457" style="mask-type:luminance" maskUnits="userSpaceOnUse" x="0" y="1" width="53" height="51">
<path d="M0.1875 1.17447H52.1875V51.5391H0.1875V1.17447Z" fill="white"/>
</mask>
<g mask="url(#mask1_23_1457)">
<path d="M11.7083 44.6536H45.3177V12.2109L11.7083 44.6536ZM48.5312 51.0859H3.74477C2.43748 51.0859 1.25518 50.2891 0.765602 49.0755C0.276018 47.8568 0.572892 46.4661 1.5156 45.5547L46.2969 2.33072C47.2291 1.43489 48.6041 1.17968 49.7864 1.68489C50.9739 2.19009 51.7448 3.35155 51.7448 4.64322V47.8724C51.7448 49.6484 50.3073 51.0859 48.5312 51.0859Z" fill="#760504"/>
</g>
<path d="M50.7656 126.466H28.8958C24.9948 126.466 21.8073 123.273 21.8073 119.372V98.0807C21.8073 94.1797 24.9948 90.987 28.8958 90.987H50.7656C54.6666 90.987 57.8541 94.1797 57.8541 98.0807V119.372C57.8541 123.273 54.6666 126.466 50.7656 126.466Z" fill="#FBDC6A"/>
<path d="M28.8958 94.2005C26.7604 94.2005 25.0208 95.9401 25.0208 98.0807V119.372C25.0208 121.508 26.7604 123.253 28.8958 123.253H50.7656C52.901 123.253 54.6406 121.508 54.6406 119.372V98.0807C54.6406 95.9401 52.901 94.2005 50.7656 94.2005H28.8958ZM50.7656 129.685H28.8958C23.2135 129.685 18.5938 125.06 18.5938 119.372V98.0807C18.5938 92.3932 23.2135 87.7682 28.8958 87.7682H50.7656C56.4479 87.7682 61.0677 92.3932 61.0677 98.0807V119.372C61.0677 125.06 56.4479 129.685 50.7656 129.685Z" fill="#760504"/>
<path d="M50.7656 197.279H28.8958C24.9948 197.279 21.8073 194.086 21.8073 190.185V168.893C21.8073 164.992 24.9948 161.799 28.8958 161.799H50.7656C54.6666 161.799 57.8541 164.992 57.8541 168.893V190.185C57.8541 194.086 54.6666 197.279 50.7656 197.279Z" fill="#FBDC6A"/>
<path d="M28.8958 165.013C26.7604 165.013 25.0208 166.758 25.0208 168.893V190.185C25.0208 192.326 26.7604 194.065 28.8958 194.065H50.7656C52.901 194.065 54.6406 192.326 54.6406 190.185V168.893C54.6406 166.758 52.901 165.013 50.7656 165.013H28.8958ZM50.7656 200.497H28.8958C23.2135 200.497 18.5938 195.872 18.5938 190.185V168.893C18.5938 163.211 23.2135 158.586 28.8958 158.586H50.7656C56.4479 158.586 61.0677 163.211 61.0677 168.893V190.185C61.0677 195.872 56.4479 200.497 50.7656 200.497Z" fill="#760504"/>
<path d="M50.7656 268.091H28.8958C24.9948 268.091 21.8073 264.898 21.8073 260.997V239.706C21.8073 235.805 24.9948 232.612 28.8958 232.612H50.7656C54.6666 232.612 57.8541 235.805 57.8541 239.706V260.997C57.8541 264.898 54.6666 268.091 50.7656 268.091Z" fill="#EF4444"/>
<path d="M28.8958 235.831C26.7604 235.831 25.0208 237.57 25.0208 239.706V260.997C25.0208 263.138 26.7604 264.878 28.8958 264.878H50.7656C52.901 264.878 54.6406 263.138 54.6406 260.997V239.706C54.6406 237.57 52.901 235.831 50.7656 235.831H28.8958ZM50.7656 271.31H28.8958C23.2135 271.31 18.5938 266.685 18.5938 260.997V239.706C18.5938 234.023 23.2135 229.398 28.8958 229.398H50.7656C56.4479 229.398 61.0677 234.023 61.0677 239.706V260.997C61.0677 266.685 56.4479 271.31 50.7656 271.31Z" fill="#760504"/>
<path d="M186.104 99.7735H86.1354C84.3594 99.7735 82.9219 98.336 82.9219 96.56C82.9219 94.7839 84.3594 93.3412 86.1354 93.3412H186.104C187.88 93.3412 189.318 94.7839 189.318 96.56C189.318 98.336 187.88 99.7735 186.104 99.7735Z" fill="#760504"/>
<path d="M186.104 120.878H86.1354C84.3594 120.878 82.9219 119.44 82.9219 117.664C82.9219 115.888 84.3594 114.445 86.1354 114.445H186.104C187.88 114.445 189.318 115.888 189.318 117.664C189.318 119.44 187.88 120.878 186.104 120.878Z" fill="#760504"/>
<path d="M186.104 167.919H86.1354C84.3594 167.919 82.9219 166.482 82.9219 164.706C82.9219 162.93 84.3594 161.487 86.1354 161.487H186.104C187.88 161.487 189.318 162.93 189.318 164.706C189.318 166.482 187.88 167.919 186.104 167.919Z" fill="#760504"/>
<path d="M186.104 189.023H86.1354C84.3594 189.023 82.9219 187.586 82.9219 185.81C82.9219 184.034 84.3594 182.591 86.1354 182.591H186.104C187.88 182.591 189.318 184.034 189.318 185.81C189.318 187.586 187.88 189.023 186.104 189.023Z" fill="#760504"/>
<path d="M186.104 242.878H86.1354C84.3594 242.878 82.9219 241.44 82.9219 239.664C82.9219 237.888 84.3594 236.445 86.1354 236.445H186.104C187.88 236.445 189.318 237.888 189.318 239.664C189.318 241.44 187.88 242.878 186.104 242.878Z" fill="#760504"/>
<path d="M186.104 263.982H86.1354C84.3594 263.982 82.9219 262.539 82.9219 260.768C82.9219 258.992 84.3594 257.549 86.1354 257.549H186.104C187.88 257.549 189.318 258.992 189.318 260.768C189.318 262.539 187.88 263.982 186.104 263.982Z" fill="#760504"/>
<path d="M39.7343 120.883C38.6874 120.883 37.7083 120.372 37.1041 119.513L28.3593 107.081C27.3385 105.622 27.6874 103.622 29.1405 102.596C30.5937 101.57 32.5937 101.924 33.6145 103.378L39.4478 111.674L56.1093 82.4661C56.9895 80.9244 58.9478 80.388 60.4947 81.263C62.0312 82.1484 62.5676 84.1119 61.6926 85.6536L42.526 119.258C41.9791 120.216 40.9843 120.825 39.8853 120.878C39.8333 120.878 39.7812 120.883 39.7343 120.883Z" fill="#760504"/>
<path d="M39.7343 191.607C38.6874 191.607 37.7083 191.102 37.1041 190.242L28.3593 177.805C27.3385 176.352 27.6874 174.346 29.1405 173.326C30.5937 172.3 32.5989 172.654 33.6145 174.102L39.4478 182.398L56.1093 153.195C56.9895 151.654 58.9478 151.112 60.4947 151.992C62.0312 152.872 62.5676 154.841 61.6926 156.383L42.526 189.987C41.9791 190.94 40.9843 191.55 39.8853 191.607C39.8333 191.607 39.7812 191.607 39.7343 191.607Z" fill="#760504"/>
<path d="M163.807 60.8776C162.031 60.8776 160.594 59.4349 160.594 57.6589V31.8828C160.594 30.6589 161.094 29.5235 161.995 28.6901C163.792 27.0339 166.823 27.1745 168.438 28.9922L184.042 48.0547V30.6172C184.042 28.8412 185.479 27.3985 187.255 27.3985C189.031 27.3985 190.469 28.8412 190.469 30.6172V57.0547C190.469 58.4141 189.615 59.6276 188.339 60.086C187.052 60.5443 185.63 60.1433 184.771 59.0912L167.021 37.4141V57.6589C167.021 59.4349 165.583 60.8776 163.807 60.8776Z" fill="#760504"/>
<path d="M76.1666 46.3308H80.9114C82.9999 46.3308 84.7187 45.6953 86.1666 44.3881C87.552 43.1433 88.1926 41.7735 88.1926 40.0808C88.1926 38.3776 87.5572 37.0183 86.1926 35.8099C84.7291 34.4662 83.0155 33.8308 80.9114 33.8308H76.1666V46.3308ZM72.953 60.8776C71.177 60.8776 69.7395 59.4349 69.7395 57.6589V31.7578C69.7395 30.5443 70.2343 29.4193 71.1301 28.586C71.9635 27.8099 73.026 27.3985 74.203 27.3985H80.9114C84.6458 27.3985 87.8697 28.6224 90.4947 31.0339C93.177 33.4089 94.6249 36.5495 94.6249 40.0808C94.6249 43.6276 93.2239 46.6849 90.4739 49.1693C87.828 51.5547 84.6093 52.7631 80.9114 52.7631H76.1666V57.6589C76.1666 59.4349 74.7291 60.8776 72.953 60.8776Z" fill="#760504"/>
<path d="M138.172 46.3308H145.729L141.854 38.5599L138.172 46.3308ZM129.099 61.1693C128.635 61.1693 128.167 61.0703 127.724 60.8568C126.12 60.0964 125.437 58.1797 126.198 56.5755L138.88 29.8308C139.406 28.7162 140.521 28.0078 141.755 27.9922C142.958 27.9297 144.109 28.6745 144.661 29.7735L157.995 56.5183C158.786 58.1068 158.141 60.0391 156.552 60.8308C154.963 61.6276 153.036 60.9766 152.24 59.388L148.937 52.763H135.12L132.005 59.336C131.453 60.4922 130.302 61.1693 129.099 61.1693Z" fill="#760504"/>
<path d="M119.849 60.8776H102.26C100.484 60.8776 99.0469 59.4349 99.0469 57.6589V30.6172C99.0469 28.8412 100.484 27.3985 102.26 27.3985C104.036 27.3985 105.474 28.8412 105.474 30.6172V54.4453H119.849C121.62 54.4453 123.062 55.8828 123.062 57.6589C123.062 59.4349 121.62 60.8776 119.849 60.8776Z" fill="#760504"/>
<path d="M261.599 247.19C261.599 286.086 230.094 317.612 191.234 317.612C152.365 317.612 120.865 286.086 120.865 247.19C120.865 208.3 152.365 176.773 191.234 176.773C230.094 176.773 261.599 208.3 261.599 247.19Z" fill="#EF4444"/>
<mask id="mask2_23_1457" style="mask-type:luminance" maskUnits="userSpaceOnUse" x="117" y="173" width="148" height="148">
<path d="M117.615 173.466H264.812V320.826H117.615V173.466Z" fill="white"/>
</mask>
<g mask="url(#mask2_23_1457)">
<path d="M191.229 179.987C154.203 179.987 124.073 210.138 124.073 247.19C124.073 284.247 154.203 314.393 191.229 314.393C228.26 314.393 258.385 284.247 258.385 247.19C258.385 210.138 228.26 179.987 191.229 179.987ZM191.229 320.826C150.656 320.826 117.651 287.794 117.651 247.19C117.651 206.591 150.656 173.555 191.229 173.555C231.807 173.555 264.818 206.591 264.818 247.19C264.818 287.794 231.807 320.826 191.229 320.826Z" fill="#760504"/>
</g>
<path d="M158.838 274.68H152.615C149.187 274.68 146.411 271.898 146.411 268.471V232.31C146.411 228.883 149.187 226.102 152.615 226.102H158.838C162.26 226.102 165.042 228.883 165.042 232.31V268.471C165.042 271.898 162.26 274.68 158.838 274.68Z" fill="#FBDC6A"/>
<path d="M152.615 229.315C150.964 229.315 149.625 230.659 149.625 232.31V268.471C149.625 270.117 150.964 271.461 152.615 271.461H158.839C160.484 271.461 161.828 270.117 161.828 268.471V232.31C161.828 230.659 160.484 229.315 158.839 229.315H152.615ZM158.839 277.893H152.615C147.422 277.893 143.198 273.664 143.198 268.471V232.31C143.198 227.112 147.422 222.888 152.615 222.888H158.839C164.031 222.888 168.255 227.112 168.255 232.31V268.471C168.255 273.664 164.031 277.893 158.839 277.893Z" fill="#760504"/>
<path d="M222.724 274.68H228.385C231.729 274.68 234.443 271.961 234.443 268.612V232.164C234.443 228.815 231.729 226.102 228.385 226.102H222.724C219.375 226.102 216.661 228.815 216.661 232.164V268.612C216.661 271.961 219.375 274.68 222.724 274.68Z" fill="#FBDC6A"/>
<path d="M222.724 229.32C221.156 229.32 219.875 230.596 219.875 232.164V268.612C219.875 270.185 221.156 271.461 222.724 271.461H228.38C229.953 271.461 231.229 270.185 231.229 268.612V232.164C231.229 230.596 229.953 229.32 228.38 229.32H222.724ZM228.38 277.893H222.724C217.609 277.893 213.448 273.732 213.448 268.612V232.164C213.448 227.049 217.609 222.888 222.724 222.888H228.38C233.495 222.888 237.656 227.049 237.656 232.164V268.612C237.656 273.732 233.495 277.893 228.38 277.893Z" fill="#760504"/>
<path d="M216.661 258.831H165.234V241.951H216.661V258.831Z" fill="#FBDC6A"/>
<path d="M168.448 255.612H213.448V245.164H168.448V255.612ZM216.661 262.044H165.229C163.458 262.044 162.016 260.607 162.016 258.831V241.951C162.016 240.174 163.458 238.737 165.229 238.737H216.661C218.438 238.737 219.875 240.174 219.875 241.951V258.831C219.875 260.607 218.438 262.044 216.661 262.044Z" fill="#760504"/>
</g>
<defs>
<filter id="filter0_d_23_1457" x="0.1875" y="0.674469" width="281.125" height="328.651" filterUnits="userSpaceOnUse" color-interpolation-filters="sRGB">
<feFlood flood-opacity="0" result="BackgroundImageFix"/>
<feColorMatrix in="SourceAlpha" type="matrix" values="0 0 0 0 0 0 0 0 0 0 0 0 0 0 0 0 0 0 127 0" result="hardAlpha"/>
<feOffset dx="12" dy="4"/>
<feGaussianBlur stdDeviation="2.25"/>
<feComposite in2="hardAlpha" operator="out"/>
<feColorMatrix type="matrix" values="0 0 0 0 0 0 0 0 0 0 0 0 0 0 0 0 0 0 0.25 0"/>
<feBlend mode="normal" in2="BackgroundImageFix" result="effect1_dropShadow_23_1457"/>
<feBlend mode="normal" in="SourceGraphic" in2="effect1_dropShadow_23_1457" result="shape"/>
</filter>
</defs>
</svg>
