<svg width="261" height="260" viewBox="0 0 261 260" fill="none" xmlns="http://www.w3.org/2000/svg">
<path d="M120.219 116.516C129.094 116.516 133.532 120.901 133.532 129.662V183.058C133.532 191.823 129.094 196.203 120.219 196.203H106.594C104.287 196.203 102.474 195.683 101.157 194.641C99.8494 193.599 99.0838 192.094 98.865 190.12H98.6984C98.4744 192.094 97.7036 193.599 96.3859 194.641C95.0786 195.683 93.2713 196.203 90.9692 196.203H84.74C80.0317 196.203 77.0734 194.344 75.865 190.62V206.391C75.865 215.151 71.4275 219.537 62.5525 219.537H32.3234C23.4484 219.537 19.0109 215.151 19.0109 206.391V152.995C19.0109 144.12 23.4484 139.683 32.3234 139.683H41.365V149.703H35.7609C33.6879 149.703 32.3234 150.011 31.6567 150.62C31.0004 151.219 30.6775 152.61 30.6775 154.787V204.412C30.6775 206.605 31.0004 208 31.6567 208.599C32.3234 209.209 33.6879 209.516 35.7609 209.516H58.9275C61.1202 209.516 62.5161 209.209 63.115 208.599C63.7244 208 64.0317 206.605 64.0317 204.412V131.474H75.865V180.433C75.865 182.516 76.3025 183.995 77.1775 184.87C78.0525 185.745 79.4744 186.183 81.4484 186.183H87.865C89.9327 186.183 91.2921 185.886 91.9484 185.287C92.615 184.677 92.9484 183.328 92.9484 181.245V141.662H104.615V181.245C104.615 183.328 104.938 184.677 105.594 185.287C106.261 185.886 107.636 186.183 109.719 186.183H116.615C118.698 186.183 120.063 185.886 120.719 185.287C121.37 184.677 121.698 183.328 121.698 181.245V131.474C121.698 129.282 121.396 127.886 120.803 127.287C120.204 126.677 118.808 126.37 116.615 126.37H113.323V116.516H120.219Z" fill="#FBDC6A"/>
<path d="M140.91 219.537V209.516H143.368C145.451 209.516 146.79 209.209 147.389 208.599C147.998 208 148.305 206.662 148.305 204.578V116.516H160.139V206.391C160.139 215.151 155.701 219.537 146.826 219.537H140.91Z" fill="#FBDC6A"/>
<path d="M167.524 219.537V209.516H169.983C172.066 209.516 173.404 209.209 174.003 208.599C174.613 208 174.92 206.662 174.92 204.578V116.516H186.753V206.391C186.753 215.151 182.316 219.537 173.441 219.537H167.524Z" fill="#FBDC6A"/>
<path d="M229.139 116.516C238.014 116.516 242.451 120.901 242.451 129.662V206.391C242.451 215.151 238.014 219.537 229.139 219.537H199.076V209.516H225.514C227.707 209.516 229.102 209.209 229.701 208.599C230.311 208 230.618 206.605 230.618 204.412V196.203H212.368C203.503 196.203 199.076 191.823 199.076 183.058V129.662C199.076 125.162 200.165 121.849 202.347 119.724C204.54 117.589 207.878 116.516 212.368 116.516H229.139ZM230.618 186.183V131.474C230.618 129.282 230.311 127.886 229.701 127.287C229.102 126.677 227.707 126.37 225.514 126.37H215.826C213.743 126.37 212.394 126.703 211.785 127.37C211.186 128.026 210.889 129.391 210.889 131.474V181.245C210.889 183.328 211.186 184.677 211.785 185.287C212.394 185.886 213.743 186.183 215.826 186.183H230.618Z" fill="#FBDC6A"/>
<mask id="mask0_1_2012" style="mask-type:luminance" maskUnits="userSpaceOnUse" x="0" y="0" width="261" height="260">
<path d="M0.765625 0H260.776V260H0.765625V0Z" fill="white"/>
</mask>
<g mask="url(#mask0_1_2012)">
<path d="M201.672 35.9583C200.594 35.5312 199.51 35.1198 198.427 34.7187C198.417 34.7135 198.406 34.7083 198.396 34.7031C198.385 34.6979 198.38 34.6979 198.375 34.6979C187.656 30.6979 176.682 27.6718 165.526 25.6302C165.406 25.5989 165.286 25.5729 165.167 25.552C165.073 25.5312 164.979 25.526 164.885 25.5156C153.641 23.5 142.208 22.4843 130.656 22.4843C106.24 22.4843 82.349 27.0156 59.6459 35.9531C52.8646 38.6198 47.5729 43.5625 45.5 49.1875C44.1459 52.8541 44.2969 56.5573 45.9167 59.625L46.9688 61.6875C53.0469 73.6198 59.1302 85.552 65.2084 97.4843L65.2448 97.5573C69.1667 104.927 78.4011 108.036 86.7344 104.781C100.776 99.25 115.557 96.4479 130.656 96.4479C145.76 96.4479 160.536 99.25 174.589 104.781C176.818 105.656 179.109 106.068 181.349 106.068C187.474 106.068 193.203 102.958 196.073 97.552L215.396 59.625C217.021 56.5573 217.167 52.8541 215.818 49.1875C213.74 43.5677 208.453 38.6198 201.672 35.9583ZM207.703 55.5729L188.375 93.5C186.547 96.901 181.885 98.2968 177.766 96.6875C162.703 90.7552 146.854 87.75 130.656 87.75C114.458 87.75 98.6094 90.7552 83.5573 96.6823C79.4271 98.2968 74.7709 96.901 72.9375 93.5C66.8646 81.5781 60.7917 69.6562 54.7136 57.7395L53.6511 55.6458L53.6094 55.5729C53.0261 54.4791 53.3125 53.1354 53.6563 52.2031C54.9896 48.5885 58.6875 45.8802 61.9896 44.4062L63.7969 49.375C64.4427 51.1458 66.1094 52.2395 67.8854 52.2395C68.3802 52.2395 68.8802 52.1562 69.375 51.9739C71.6302 51.1562 72.7917 48.6562 71.974 46.401L70.1354 41.3541C77.8177 38.6927 85.6302 36.5468 93.5469 34.927L94.5052 40.3645C94.875 42.4739 96.7136 43.9583 98.7813 43.9583C99.0313 43.9583 99.2865 43.9375 99.5417 43.8958C101.906 43.4791 103.49 41.2187 103.073 38.8541L102.109 33.3854C110.089 32.1406 118.167 31.4218 126.307 31.2343V36.8229C126.307 39.2239 128.255 41.1718 130.656 41.1718C133.057 41.1718 135.005 39.2239 135.005 36.8229V31.2343C143.203 31.4218 151.328 32.151 159.359 33.4114L158.391 38.8802C157.974 41.2448 159.552 43.5 161.917 43.9218C162.172 43.9635 162.427 43.9843 162.677 43.9843C164.745 43.9843 166.583 42.5052 166.953 40.3958L167.917 34.9583C175.833 36.5833 183.641 38.7343 191.323 41.401L189.484 46.4479C188.656 48.7031 189.823 51.2031 192.078 52.026C192.568 52.2083 193.073 52.2916 193.568 52.2916C195.344 52.2916 197.01 51.1927 197.651 49.4323L199.464 44.4635C204.156 46.5781 206.766 49.7916 207.656 52.2031C208 53.1354 208.287 54.4791 207.703 55.5729ZM234.401 -0.00524902H26.9115C12.4948 -0.00524902 0.760437 11.7239 0.760437 26.1458V233.635C0.760437 248.052 12.4896 259.781 26.9115 259.781H234.401C248.818 259.781 260.552 248.052 260.552 233.635V26.1458C260.552 11.7291 248.818 -0.00524902 234.401 -0.00524902ZM251.854 233.635C251.854 243.26 244.026 251.083 234.401 251.083H26.9115C17.2865 251.083 9.45835 243.26 9.45835 233.635V26.1458C9.45835 16.5208 17.2865 8.69267 26.9115 8.69267H234.401C244.026 8.69267 251.854 16.5208 251.854 26.1458V233.635ZM135.005 57.2968V76.3593C135.005 78.7604 133.057 80.7083 130.656 80.7083C128.255 80.7083 126.307 78.7604 126.307 76.3593V57.2968C126.307 54.8958 128.255 52.9479 130.656 52.9479C133.057 52.9479 135.005 54.8958 135.005 57.2968Z" fill="#FBDC6A"/>
</g>
</svg>
