<svg width="42" height="34" viewBox="0 0 42 34" fill="none" xmlns="http://www.w3.org/2000/svg">
<mask id="mask0_71_3265" style="mask-type:luminance" maskUnits="userSpaceOnUse" x="0" y="0" width="42" height="34">
<path d="M0 0.839996H42V33.6667H0V0.839996Z" fill="white"/>
</mask>
<g mask="url(#mask0_71_3265)">
<path d="M0.394003 18.4206C0.722128 19.15 1.50951 19.7461 2.23102 19.5476C2.36275 20.8732 2.55915 22.2653 3.28126 23.3923C4.00338 24.5187 5.51227 25.314 6.75951 24.7838C6.69364 25.3806 7.02177 25.9774 7.41576 26.375C8.4654 27.3029 10.7623 27.4355 11.6814 26.1759C11.9436 25.8448 12.0095 25.4466 12.0748 24.9829C12.2065 24.5853 12.2718 24.1876 12.2065 23.8559C12.1406 21.7351 11.9436 19.6136 11.6814 17.5593C12.0748 17.2942 12.3376 17.4927 14.5686 17.1617C14.6998 19.481 15.4878 21.3374 16.2751 23.4583C17.1936 25.9774 17.5218 28.695 17.8499 31.3461C17.9158 31.9429 17.9816 32.6057 18.1128 33.2019C18.178 33.467 18.375 33.5995 18.572 33.5995H18.6379C18.9001 33.5335 19.0971 33.3344 19.0313 33.0693C18.966 32.4731 18.8343 31.8763 18.769 31.2135C18.4409 28.4959 18.0469 25.7123 17.1284 23.1272C16.4063 21.0723 15.553 19.15 15.4878 17.0291C16.144 16.8959 16.8003 16.83 17.4565 16.6974C18.375 17.957 20.3438 17.8244 21 16.3657C22.1814 16.7634 23.5597 15.7695 23.625 14.5766C24.4783 14.6425 25.2004 13.9798 25.4626 13.1844C25.5938 13.317 25.6596 13.4496 25.5938 13.7147C25.5285 13.8472 25.4626 13.9132 25.3968 13.9798C25.1345 14.1123 25.0686 14.3774 25.1345 14.6425C25.4626 15.3053 26.5129 14.7091 26.5781 13.7147C27.0374 13.7806 27.4314 13.7147 27.6936 13.5821C27.9565 13.4496 28.0218 13.1844 27.8906 12.9193C27.7595 12.6542 27.4972 12.5877 27.2344 12.7202C27.0374 12.7868 26.5781 12.7868 26.3811 12.6542C26.3159 12.6542 26.3159 12.6542 26.25 12.5877C25.9877 12.2566 25.7908 12.19 25.5938 11.9915C25.2656 11.6598 25.0686 11.063 25.2004 10.5993C25.2656 10.4668 25.3968 10.2677 25.5938 10.2677C25.8566 10.2017 26.1189 10.3342 26.447 10.4002C27.1033 10.5993 27.7595 10.8645 28.4158 11.1296C29.8594 11.7264 29.4001 11.9249 29.072 15.0402C28.8097 16.6974 28.6127 17.6919 26.5781 18.8183C25.5938 19.3485 24.5441 19.8793 24.0843 21.0057C23.6909 21.9336 24.019 22.928 24.3471 23.7899C25.0686 25.7782 25.9219 27.7006 26.7093 29.6229C26.7751 29.8214 26.9721 29.888 27.1691 29.888C27.2344 29.888 27.3002 29.888 27.3655 29.8214C27.6284 29.6889 27.7595 29.4238 27.6284 29.1587C26.841 27.3029 25.9877 25.3806 25.2656 23.3923C25.0034 22.7289 24.8064 21.9336 25.0034 21.2708C25.5285 19.8793 28.4158 19.6136 29.5313 17.2276C29.8594 16.5649 29.9252 15.8355 30.0564 15.1727C30.6468 15.1068 31.2377 15.0402 31.8281 14.9076C31.8281 14.9076 31.8281 14.9076 31.8281 14.8417C32.2221 16.5649 32.6155 18.3546 33.1406 20.2104C33.2065 20.6746 33.5999 21.47 33.6658 21.5359C34.2561 22.5964 35.9626 22.8621 37.0129 22.4638C38.2595 21.9336 39.1127 20.4755 38.8499 19.15C39.966 18.7523 40.6875 17.5593 40.8845 16.3657C41.0815 15.1727 40.8845 13.9798 40.6875 12.7868C41.2126 12.7202 41.7377 12.3225 41.8689 11.7923C41.8689 11.7264 41.8689 11.6598 41.8689 11.5938C42 11.3287 42 11.063 42 10.7979L41.9347 9.20723C41.803 8.41191 41.0815 7.81512 40.2941 7.94767L39.769 8.01425C39.572 6.88724 39.375 5.69426 38.7188 4.6998C38.1284 3.83851 36.947 3.04319 35.7656 3.30829C35.7656 3.17574 35.7004 3.10916 35.7004 2.97661C35.4375 1.65107 34.1909 0.723195 32.8125 0.921723H32.6155C31.2377 1.25341 30.3186 2.57895 30.5156 3.90448C30.5156 5.82681 30.7126 7.81512 30.9749 9.93658L29.072 10.3342C28.7439 10.2017 28.1535 9.93658 27.8254 9.80402C27.8906 9.47234 27.8906 9.14126 27.7595 8.80957C27.4972 8.08022 26.3811 6.95382 25.2656 6.68871C24.5441 6.55616 23.625 6.82127 23.2316 7.55001C22.1814 6.4236 20.2785 6.68871 19.6875 8.21278C18.7031 7.88169 17.5876 8.27936 17.1284 9.33978C16.3404 9.07468 15.356 9.40636 14.8968 10.1351C14.5034 10.8645 14.5034 11.7923 14.7656 12.7202C14.3716 12.7868 13.0591 13.0519 11.0904 13.383C10.697 11.3287 10.1719 9.33978 9.51564 7.41745C9.25338 6.09192 8.00614 5.16404 6.62838 5.36318H6.43138C5.11888 5.5617 4.19977 6.88724 4.39677 8.21278V8.80957C3.15013 8.87615 2.23102 10.0026 1.96876 10.997C1.64064 12.19 1.83763 13.383 1.96876 14.5766C1.77177 14.6425 0.984388 14.444 0.459268 15.2393C0.197008 15.5704 0.131143 15.9021 0.131143 16.2998C1.3175e-05 17.0291 0.131143 17.8244 0.394003 18.4206ZM40.7534 9.07468C41.0156 9.27381 40.8845 9.47234 41.1468 10.997C41.2126 11.2621 41.0156 11.4612 40.8186 11.5272L40.4252 11.5938C40.2941 10.7319 40.0971 10.0026 39.9001 9.07468C40.2941 9.0087 40.5564 8.87615 40.7534 9.07468ZM37.8655 5.2966C38.3906 6.09192 38.5218 7.08637 38.7188 7.94767C39.178 10.5993 39.966 13.1179 39.769 15.703C39.7031 16.2998 39.6379 16.7634 39.4409 17.0951C39.2439 17.4268 38.5876 17.8244 38.2595 17.8904C37.8002 12.5877 37.0781 8.1468 35.9626 4.30214C36.6847 4.16959 37.4721 4.63383 37.8655 5.2966ZM32.7472 2.04873H32.9436C33.7316 1.91618 34.519 2.44639 34.716 3.30829C34.8471 3.97106 36.6189 8.41191 37.4721 19.6136C37.6033 20.4755 37.0781 21.2708 36.2249 21.4034C36.0938 21.4034 35.5034 21.6685 34.8471 21.2048C34.519 20.9397 34.322 20.6081 34.1909 20.1444C31.2377 9.73745 31.6311 4.4347 31.5 3.83851C31.3689 2.97661 31.894 2.18128 32.7472 2.04873ZM31.5659 13.4496L30.3186 13.7147C30.4504 12.7202 30.7126 11.9249 30.1875 11.1296L31.1719 10.9304C31.2377 11.7264 31.4347 12.5877 31.5659 13.4496ZM25.0686 7.68256C25.5285 7.74914 25.9219 8.08022 26.447 8.61104C26.7093 8.87615 26.9063 9.14126 26.9063 9.47234C26.447 9.33978 25.9877 9.20723 25.5285 9.27381C24.2813 9.47234 23.9531 10.8645 24.4783 11.9915V12.19C24.5441 12.4551 24.3471 13.0519 24.1501 13.1844C23.9531 13.383 23.6909 13.4496 23.428 13.317H23.3627C23.2316 11.8589 22.7718 10.0026 23.6909 8.7436C23.7561 8.61104 23.9531 7.48403 25.0686 7.68256ZM21.2629 7.88169C21.7221 7.74914 22.2472 7.88169 22.5754 8.27936C22.6406 8.34593 22.7065 8.41191 22.7718 8.41191C21.2629 10.997 23.3627 14.51 21.9844 15.1727C21.8533 15.2393 21.3281 15.1068 21.2629 14.9742C21.2629 14.9076 21.197 14.9076 21.1311 14.8417C20.9347 12.9853 20.1468 10.8645 20.4749 9.07468C20.4749 9.0087 20.4749 8.94212 20.4749 8.94212C20.4749 8.47849 20.803 8.01425 21.2629 7.88169ZM17.9158 10.1351C17.8499 9.73745 18.1127 9.33978 18.4409 9.20723C18.769 9.07468 19.1624 9.07468 19.4252 9.20723C19.0313 11.7264 20.5408 15.1068 20.0156 15.9681C19.8186 16.2332 19.3594 16.2998 19.0313 16.1672C18.7031 15.9681 18.4409 15.5704 18.375 15.1068C18.375 14.9742 18.3091 14.9076 18.2439 14.7751C18.3091 14.3115 18.2439 13.9798 18.1128 13.5155C17.7846 11.7923 17.8499 10.6653 17.8499 10.4668C17.9158 10.2677 17.9158 10.2017 17.9158 10.1351ZM15.6189 10.5993C15.8811 10.2017 16.5374 10.1351 16.8655 10.2677V10.4002C16.8003 12.9193 17.3248 13.9132 17.2595 14.51C17.2595 14.7091 17.1284 14.9076 16.9966 14.9742C16.8655 15.0402 16.6685 14.9742 16.5374 14.8417C16.3404 14.7091 16.2751 14.444 16.144 14.1123C15.2908 11.9249 15.4219 10.997 15.6189 10.5993ZM14.9626 13.6481C15.2249 14.51 15.4878 15.3719 16.144 15.7695C14.9626 15.9681 13.322 16.1672 11.5503 16.4983C11.4185 15.7695 11.3533 15.0402 11.1563 14.3774C13.1909 14.0457 14.5034 13.7806 14.9626 13.6481ZM6.56251 6.42361H6.75951C7.67802 6.29105 8.40013 6.95382 8.53126 7.68256C8.59713 8.1468 10.9593 14.1789 11.2874 23.9885C11.4185 24.8504 10.894 25.6457 10.0408 25.7782H9.71263C8.85939 25.9108 8.13727 25.3806 7.94088 24.5187C7.87501 24.055 5.25001 16.9625 5.25001 8.27936V8.21278C5.18415 7.35148 5.70927 6.55616 6.56251 6.42361ZM2.82201 11.3947C3.019 10.6653 3.60939 10.0026 4.3315 9.87C4.46263 14.2449 5.25001 18.8183 6.62838 23.3923C6.56251 23.3923 6.49665 23.3923 6.36552 23.4583C6.16852 23.5908 5.11888 23.3923 4.79076 23.1272C4.46263 22.8621 4.26564 22.3978 4.06864 21.8676C3.15013 19.481 3.15013 16.83 2.75614 14.1789C2.69088 13.317 2.55915 12.3225 2.82201 11.3947ZM1.44364 15.703L1.96876 15.637C2.09989 16.5649 2.09989 17.2942 2.23102 18.1555L1.83763 18.2221C1.57477 18.2881 1.37838 18.0895 1.31251 17.8244L1.05025 16.2332C1.05025 15.9681 1.24665 15.7695 1.44364 15.703Z" fill="white"/>
</g>
</svg>
