<svg width="614" height="628" viewBox="0 0 614 628" fill="none" xmlns="http://www.w3.org/2000/svg">
<g filter="url(#filter0_d_24_1428)">
<path d="M428.245 456.411H186.703V161.87H428.245V456.411ZM181.411 486.818C188.615 478.443 187.734 465.812 179.354 458.615C136.13 421.151 111.286 367.094 111.286 309.948C111.286 201.531 199.495 113.391 307.99 113.391C319.016 113.391 327.984 104.432 327.984 93.4114C327.984 82.3958 319.016 73.4323 307.99 73.4323C177.443 73.4323 71.2969 179.495 71.2969 309.948C71.2969 378.698 101.141 443.922 153.188 488.875C157.01 492.109 161.568 493.724 166.271 493.724C171.854 493.724 177.443 491.375 181.411 486.818ZM307.844 617.562C236.099 617.562 166.417 592.443 111.286 546.609C102.76 539.557 101.583 526.922 108.641 518.401C115.698 509.88 128.339 508.708 136.865 515.76C184.792 555.568 245.51 577.458 307.844 577.458C423.839 577.458 526.156 503.417 562.177 393.391C565.557 382.958 576.875 377.229 587.464 380.609C597.901 383.984 603.63 395.297 600.25 405.875C558.792 532.505 441.328 617.562 307.844 617.562Z" fill="#760504"/>
<path d="M225.516 252.214H207.141V233.849H225.516V252.214ZM406.927 239.286H237.13V246.781H406.927V239.286ZM225.516 269.255H207.141V287.62H225.516V269.255ZM406.927 274.693H237.13V282.182H406.927V274.693ZM225.516 304.807H207.141V323.021H225.516V304.807ZM406.927 310.094H237.13V317.589H406.927V310.094ZM225.516 340.208H207.141V358.573H225.516V340.208ZM406.927 345.646H237.13V353.135H406.927V345.646ZM342.391 436.87H407.37V427.031H342.391V436.87Z" fill="#FBDC6A"/>
<mask id="mask0_24_1428" style="mask-type:luminance" maskUnits="userSpaceOnUse" x="0" y="2" width="545" height="492">
<path d="M0.291748 2.00525H544.667V494H0.291748V2.00525Z" fill="white"/>
</mask>
<g mask="url(#mask0_24_1428)">
<path d="M71.448 493.724C65.1251 493.724 58.8022 490.786 54.9792 485.057C31.3126 450.974 14.9949 412.927 6.61467 372.38C2.34904 351.964 0.291748 331.099 0.291748 310.094C0.291748 299.078 9.2605 290.115 20.2865 290.115C31.3126 290.115 40.2813 299.078 40.2813 310.094C40.2813 328.313 42.1928 346.526 45.7188 364.302C52.922 399.557 67.1824 432.609 87.7657 462.286C94.0886 471.396 91.7345 483.88 82.7657 490.052C79.3855 492.547 75.4167 493.724 71.448 493.724ZM537.771 136.161C546.151 128.964 546.885 116.328 539.682 107.953C481.172 41.1146 396.641 2.77087 307.844 2.77087C251.094 2.77087 195.526 18.3438 147.307 48.0209C137.896 53.75 134.958 66.0886 140.688 75.4896C146.422 84.8907 158.771 87.8282 168.182 82.099C210.078 56.3907 258.448 42.875 307.844 42.875C385.026 42.875 458.531 76.224 509.396 134.396C513.365 138.953 518.953 141.302 524.542 141.302C529.245 141.156 533.948 139.542 537.771 136.161Z" fill="white"/>
</g>
<mask id="mask1_24_1428" style="mask-type:luminance" maskUnits="userSpaceOnUse" x="0" y="80" width="548" height="453">
<path d="M0.291748 80.6666H547.333V532.667H0.291748V80.6666Z" fill="white"/>
</mask>
<g mask="url(#mask1_24_1428)">
<path d="M384.583 532.505C376.5 532.505 368.854 527.51 365.912 519.578C361.943 509.297 367.234 497.687 377.526 493.87C419.573 478.005 455.297 447.745 478.083 408.667C483.672 399.12 495.87 395.885 505.427 401.469C514.984 407.052 518.219 419.245 512.63 428.792C485.287 475.656 442.359 512.083 391.787 531.182C389.287 532.062 386.938 532.505 384.583 532.505ZM87.323 81.5156C44.8386 81.5156 10.2865 116.036 10.2865 158.49C10.2865 200.943 44.8386 235.469 87.323 235.469H164.359V158.49C164.359 116.036 129.958 81.5156 87.323 81.5156ZM367.677 172.448H247.125V160.693C247.125 151.88 254.328 144.682 263.151 144.682H351.802C360.62 144.682 367.823 151.88 367.823 160.693V172.448H367.677ZM526.599 103.547C515.573 103.547 506.604 112.51 506.604 123.526C506.604 134.547 515.573 143.505 526.599 143.505C537.625 143.505 546.594 134.547 546.594 123.526C546.594 112.51 537.625 103.547 526.599 103.547ZM20.2865 286C9.2605 286 0.291748 294.964 0.291748 305.979C0.291748 317 9.2605 325.958 20.2865 325.958C31.3126 325.958 40.2813 317 40.2813 305.979C40.2813 294.964 31.3126 286 20.2865 286Z" fill="#FBDC6A"/>
</g>
<path d="M95.1147 159.521C104.083 162.307 110.552 169.802 110.552 178.615V206.089H64.2449V178.615C64.2449 169.802 70.7136 162.307 79.6772 159.521C70.7136 156.729 64.2449 149.234 64.2449 140.422V112.802H110.552V140.276C110.552 149.234 104.083 156.729 95.1147 159.521Z" fill="white"/>
<path d="M571.729 299.224C571.729 332.276 544.828 359.161 511.75 359.161C478.672 359.161 451.771 332.276 451.771 299.224V239.286H511.75C544.828 239.286 571.729 266.021 571.729 299.224ZM118.787 112.802V205.938H121.135V217.104H53.5105V205.938H56.599V112.802H53.5105V101.641H121.281V112.802H118.787ZM115.698 112.802H59.6876V205.938H115.698V112.802Z" fill="#EF4444"/>
<path d="M399.578 514.729C399.578 525.75 390.61 534.708 379.583 534.708C368.557 534.708 359.594 525.75 359.594 514.729C359.594 503.714 368.557 494.75 379.583 494.75C390.61 494.75 399.578 503.714 399.578 514.729ZM107.61 139.099V129.844L67.0366 139.099C67.0366 148.797 74.8283 156.729 84.9741 157.755V199.474L67.0366 201.094V204.323H107.61V197.271L89.6772 198.891V157.609C99.8179 156.729 107.61 148.646 107.61 139.099Z" fill="#760504"/>
<path d="M368.854 418.656C367.823 418.656 366.797 418.359 365.911 417.776C360.031 413.807 357.828 406.901 355.917 401.469C355.771 401.172 355.771 401.026 355.62 400.734C350.625 400.146 344.156 401.469 338.568 411.161C337.391 413.219 334.453 414.099 332.099 413.073C329.75 412.047 328.719 409.401 330.042 407.344C339.01 391.771 351.505 390.891 360.474 392.948C362.089 393.24 363.266 394.417 363.854 395.74C364.297 396.766 364.589 397.797 365.031 398.969C366.208 402.495 367.531 406.318 369.589 408.958C377.526 404.995 386.349 402.495 394.729 401.76C396.052 401.615 397.229 401.615 398.255 401.76C398.99 401.76 400.167 401.76 400.464 401.76C402.812 400.589 405.604 401.323 406.927 403.375C408.255 405.432 407.37 408.078 405.021 409.109C402.667 410.281 400.312 410.135 398.109 410.135C397.229 410.135 396.49 410.135 395.755 410.135C387.818 410.87 378.995 413.661 371.5 417.922C370.62 418.359 369.734 418.656 368.854 418.656ZM582.755 375.615C571.729 375.615 562.766 384.573 562.766 395.594C562.766 406.609 571.729 415.573 582.755 415.573C593.781 415.573 602.75 406.609 602.75 395.594C602.75 384.573 593.932 375.615 582.755 375.615ZM189.203 476.536C189.203 487.552 180.234 496.516 169.208 496.516C158.182 496.516 149.219 487.552 149.219 476.536C149.219 465.516 158.182 456.557 169.208 456.557C180.234 456.557 189.203 465.37 189.203 476.536ZM527.042 301.573C524.979 299.661 522.479 298.047 519.688 297.021V276.599C521.896 277.479 523.807 278.802 525.13 280.422C526.599 282.036 529.099 282.328 530.714 280.859C532.333 279.391 532.625 276.896 531.156 275.276C528.365 271.901 524.245 269.547 519.542 268.078V260.443C519.542 258.677 518.073 257.062 516.161 257.062C514.396 257.062 512.781 258.531 512.781 260.443V267.198C511.896 267.198 511.016 267.198 510.281 267.198V260.443C510.281 258.677 508.807 257.062 506.896 257.062C505.135 257.062 503.516 258.531 503.516 260.443V268.375C501.755 268.964 500.135 269.698 498.667 270.724C493.964 273.807 491.021 278.068 490.578 283.208C490.141 288.203 492.198 293.052 496.167 296.875C498.224 298.781 500.724 300.25 503.516 301.427V321.849C501.458 320.964 499.693 319.792 498.37 318.172C496.901 316.557 494.401 316.411 492.786 317.88C491.167 319.349 491.021 321.849 492.49 323.464C495.286 326.693 499.255 328.896 503.667 330.219V336.682C503.667 338.448 505.135 340.062 507.047 340.062C508.807 340.062 510.427 338.594 510.427 336.682V331.396C510.719 331.396 511.016 331.396 511.458 331.396C512.042 331.396 512.484 331.396 513.073 331.25V336.536C513.073 338.302 514.542 339.917 516.453 339.917C518.219 339.917 519.833 338.448 519.833 336.536V329.927C521.599 329.339 523.365 328.604 524.833 327.578C529.536 324.49 532.479 320.229 532.922 315.089C533.068 310.24 531.156 305.396 527.042 301.573ZM513.073 275.13V295.406C512.781 295.406 512.484 295.255 512.193 295.255C511.604 295.109 511.016 295.109 510.427 294.964V275.13C511.307 275.13 512.193 275.13 513.073 275.13ZM502.047 290.995C499.844 288.937 498.667 286.443 498.812 283.948C499.104 281.156 501.016 278.802 503.812 277.187V292.464C503.224 292.026 502.635 291.583 502.047 290.995ZM510.573 323.318V303.042C510.87 303.187 511.307 303.187 511.604 303.187C512.193 303.339 512.63 303.339 513.219 303.484V323.318C512.193 323.318 511.307 323.318 510.573 323.318ZM524.688 314.5C524.391 317.292 522.479 319.641 519.542 321.26V305.833C522.922 308.182 524.979 311.271 524.688 314.5Z" fill="white"/>
<path d="M206.17 212L200.76 193.091H205.127L208.257 206.229H208.414L211.867 193.091H215.606L219.05 206.257H219.217L222.347 193.091H226.714L221.303 212H217.407L213.806 199.637H213.658L210.067 212H206.17ZM245.163 202.545C245.163 204.607 244.773 206.362 243.991 207.808C243.215 209.255 242.157 210.36 240.815 211.123C239.479 211.88 237.977 212.259 236.309 212.259C234.629 212.259 233.121 211.877 231.785 211.114C230.449 210.35 229.394 209.246 228.618 207.799C227.842 206.353 227.455 204.601 227.455 202.545C227.455 200.483 227.842 198.729 228.618 197.283C229.394 195.836 230.449 194.734 231.785 193.977C233.121 193.214 234.629 192.832 236.309 192.832C237.977 192.832 239.479 193.214 240.815 193.977C242.157 194.734 243.215 195.836 243.991 197.283C244.773 198.729 245.163 200.483 245.163 202.545ZM241.11 202.545C241.11 201.21 240.91 200.083 240.51 199.166C240.116 198.249 239.559 197.554 238.839 197.08C238.119 196.606 237.275 196.369 236.309 196.369C235.343 196.369 234.499 196.606 233.779 197.08C233.059 197.554 232.499 198.249 232.099 199.166C231.705 200.083 231.508 201.21 231.508 202.545C231.508 203.881 231.705 205.008 232.099 205.925C232.499 206.842 233.059 207.537 233.779 208.011C234.499 208.485 235.343 208.722 236.309 208.722C237.275 208.722 238.119 208.485 238.839 208.011C239.559 207.537 240.116 206.842 240.51 205.925C240.91 205.008 241.11 203.881 241.11 202.545ZM248.125 212V193.091H255.585C257.013 193.091 258.232 193.346 259.241 193.857C260.257 194.362 261.03 195.079 261.559 196.009C262.094 196.932 262.362 198.018 262.362 199.268C262.362 200.523 262.091 201.604 261.55 202.509C261.008 203.407 260.223 204.097 259.195 204.577C258.173 205.057 256.936 205.297 255.484 205.297H250.489V202.084H254.837C255.601 202.084 256.235 201.979 256.739 201.77C257.244 201.561 257.619 201.247 257.866 200.828C258.118 200.41 258.244 199.889 258.244 199.268C258.244 198.64 258.118 198.111 257.866 197.68C257.619 197.249 257.241 196.923 256.73 196.701C256.225 196.473 255.588 196.359 254.819 196.359H252.123V212H248.125ZM258.337 203.395L263.036 212H258.623L254.025 203.395H258.337ZM265.187 212V193.091H269.185V201.428H269.435L276.239 193.091H281.031L274.014 201.558L281.114 212H276.332L271.152 204.226L269.185 206.626V212H265.187ZM299.423 202.545C299.423 204.607 299.032 206.362 298.251 207.808C297.475 209.255 296.416 210.36 295.074 211.123C293.739 211.88 292.237 212.259 290.569 212.259C288.888 212.259 287.38 211.877 286.045 211.114C284.709 210.35 283.653 209.246 282.878 207.799C282.102 206.353 281.714 204.601 281.714 202.545C281.714 200.483 282.102 198.729 282.878 197.283C283.653 195.836 284.709 194.734 286.045 193.977C287.38 193.214 288.888 192.832 290.569 192.832C292.237 192.832 293.739 193.214 295.074 193.977C296.416 194.734 297.475 195.836 298.251 197.283C299.032 198.729 299.423 200.483 299.423 202.545ZM295.37 202.545C295.37 201.21 295.17 200.083 294.77 199.166C294.376 198.249 293.819 197.554 293.099 197.08C292.378 196.606 291.535 196.369 290.569 196.369C289.602 196.369 288.759 196.606 288.039 197.08C287.319 197.554 286.759 198.249 286.359 199.166C285.965 200.083 285.768 201.21 285.768 202.545C285.768 203.881 285.965 205.008 286.359 205.925C286.759 206.842 287.319 207.537 288.039 208.011C288.759 208.485 289.602 208.722 290.569 208.722C291.535 208.722 292.378 208.485 293.099 208.011C293.819 207.537 294.376 206.842 294.77 205.925C295.17 205.008 295.37 203.881 295.37 202.545ZM314.064 193.091H318.062V205.371C318.062 206.75 317.733 207.956 317.074 208.99C316.422 210.024 315.508 210.83 314.332 211.409C313.156 211.982 311.787 212.268 310.223 212.268C308.654 212.268 307.281 211.982 306.106 211.409C304.93 210.83 304.016 210.024 303.363 208.99C302.711 207.956 302.385 206.75 302.385 205.371V193.091H306.383V205.029C306.383 205.749 306.54 206.389 306.853 206.95C307.174 207.51 307.623 207.95 308.201 208.27C308.78 208.59 309.454 208.75 310.223 208.75C310.999 208.75 311.673 208.59 312.245 208.27C312.824 207.95 313.27 207.51 313.584 206.95C313.904 206.389 314.064 205.749 314.064 205.029V193.091ZM320.631 196.387V193.091H336.161V196.387H330.372V212H326.42V196.387H320.631ZM344.736 212V193.091H352.196C353.631 193.091 354.852 193.365 355.862 193.913C356.871 194.454 357.641 195.208 358.17 196.175C358.706 197.135 358.973 198.243 358.973 199.499C358.973 200.754 358.703 201.862 358.161 202.822C357.619 203.783 356.834 204.531 355.807 205.066C354.785 205.602 353.548 205.869 352.095 205.869H347.34V202.665H351.449C352.218 202.665 352.852 202.533 353.351 202.268C353.855 201.998 354.231 201.625 354.477 201.151C354.729 200.671 354.856 200.12 354.856 199.499C354.856 198.871 354.729 198.323 354.477 197.855C354.231 197.381 353.855 197.015 353.351 196.756C352.846 196.492 352.206 196.359 351.43 196.359H348.734V212H344.736ZM361.57 212V193.091H365.568V208.704H373.675V212H361.57ZM380.064 212H375.78L382.307 193.091H387.459L393.978 212H389.694L384.957 197.412H384.81L380.064 212ZM379.796 204.567H389.915V207.688H379.796V204.567ZM412.07 193.091V212H408.617L400.39 200.099H400.252V212H396.254V193.091H399.762L407.924 204.983H408.09V193.091H412.07Z" fill="white"/>
</g>
<defs>
<filter id="filter0_d_24_1428" x="0.291748" y="-0.0947509" width="618.558" height="627.757" filterUnits="userSpaceOnUse" color-interpolation-filters="sRGB">
<feFlood flood-opacity="0" result="BackgroundImageFix"/>
<feColorMatrix in="SourceAlpha" type="matrix" values="0 0 0 0 0 0 0 0 0 0 0 0 0 0 0 0 0 0 127 0" result="hardAlpha"/>
<feOffset dx="10" dy="4"/>
<feGaussianBlur stdDeviation="3.05"/>
<feComposite in2="hardAlpha" operator="out"/>
<feColorMatrix type="matrix" values="0 0 0 0 0 0 0 0 0 0 0 0 0 0 0 0 0 0 0.25 0"/>
<feBlend mode="normal" in2="BackgroundImageFix" result="effect1_dropShadow_24_1428"/>
<feBlend mode="normal" in="SourceGraphic" in2="effect1_dropShadow_24_1428" result="shape"/>
</filter>
</defs>
</svg>
